<svg width="48" height="7" viewBox="0 0 48 7" fill="none" xmlns="http://www.w3.org/2000/svg">
<path fill-rule="evenodd" clip-rule="evenodd" d="M0.292466 4.5355C-0.0980583 4.92603 -0.0980583 5.55919 0.292466 5.94972C0.68299 6.34024 1.31616 6.34024 1.70668 5.94972L3.12089 4.5355L4.53511 5.94972C4.92563 6.34024 5.5588 6.34024 5.94932 5.94972C6.33984 5.55919 6.33984 4.92603 5.94932 4.5355L4.53511 3.12129L5.94932 1.70708C6.33984 1.31655 6.33984 0.683387 5.94932 0.292863C5.5588 -0.0976617 4.92563 -0.0976615 4.53511 0.292863L3.12089 1.70708L1.70668 0.292863C1.31616 -0.0976614 0.68299 -0.0976613 0.292466 0.292863C-0.0980583 0.683387 -0.0980583 1.31655 0.292466 1.70708L1.70668 3.12129L0.292466 4.5355ZM10.2925 4.5355C9.90194 4.92603 9.90194 5.55919 10.2925 5.94972C10.683 6.34024 11.3162 6.34024 11.7067 5.94972L13.1209 4.5355L14.5351 5.94972C14.9256 6.34024 15.5588 6.34024 15.9493 5.94972C16.3398 5.55919 16.3398 4.92603 15.9493 4.5355L14.5351 3.12129L15.9493 1.70708C16.3398 1.31655 16.3398 0.683387 15.9493 0.292863C15.5588 -0.0976617 14.9256 -0.0976615 14.5351 0.292863L13.1209 1.70708L11.7067 0.292863C11.3162 -0.0976614 10.683 -0.0976613 10.2925 0.292863C9.90194 0.683387 9.90194 1.31655 10.2925 1.70708L11.7067 3.12129L10.2925 4.5355ZM20.2925 5.94972C19.9019 5.55919 19.9019 4.92603 20.2925 4.5355L21.7067 3.12129L20.2925 1.70708C19.9019 1.31655 19.9019 0.683387 20.2925 0.292863C20.683 -0.0976613 21.3162 -0.0976614 21.7067 0.292863L23.1209 1.70708L24.5351 0.292863C24.9256 -0.0976615 25.5588 -0.0976617 25.9493 0.292863C26.3398 0.683387 26.3398 1.31655 25.9493 1.70708L24.5351 3.12129L25.9493 4.5355C26.3398 4.92603 26.3398 5.55919 25.9493 5.94972C25.5588 6.34024 24.9256 6.34024 24.5351 5.94972L23.1209 4.5355L21.7067 5.94972C21.3162 6.34024 20.683 6.34024 20.2925 5.94972ZM30.2925 4.5355C29.9019 4.92603 29.9019 5.55919 30.2925 5.94972C30.683 6.34024 31.3162 6.34024 31.7067 5.94972L33.1209 4.5355L34.5351 5.94972C34.9256 6.34024 35.5588 6.34024 35.9493 5.94972C36.3398 5.55919 36.3398 4.92603 35.9493 4.5355L34.5351 3.12129L35.9493 1.70708C36.3398 1.31655 36.3398 0.683387 35.9493 0.292863C35.5588 -0.0976617 34.9256 -0.0976615 34.5351 0.292863L33.1209 1.70708L31.7067 0.292863C31.3162 -0.0976614 30.683 -0.0976613 30.2925 0.292863C29.9019 0.683387 29.9019 1.31655 30.2925 1.70708L31.7067 3.12129L30.2925 4.5355ZM41.2925 5.94972C40.9019 5.55919 40.9019 4.92603 41.2925 4.5355L42.7067 3.12129L41.2925 1.70708C40.9019 1.31655 40.9019 0.683387 41.2925 0.292863C41.683 -0.0976613 42.3162 -0.0976614 42.7067 0.292863L44.1209 1.70708L45.5351 0.292863C45.9256 -0.0976615 46.5588 -0.0976617 46.9493 0.292863C47.3398 0.683387 47.3398 1.31655 46.9493 1.70708L45.5351 3.12129L46.9493 4.5355C47.3398 4.92603 47.3398 5.55919 46.9493 5.94972C46.5588 6.34024 45.9256 6.34024 45.5351 5.94972L44.1209 4.5355L42.7067 5.94972C42.3162 6.34024 41.683 6.34024 41.2925 5.94972Z" fill="#57984C"/>
</svg>
